<?xml version="1.0" standalone="no"?>
<!DOCTYPE svg PUBLIC "-//W3C//DTD SVG 20010904//EN"
 "http://www.w3.org/TR/2001/REC-SVG-20010904/DTD/svg10.dtd">
<svg version="1.0" xmlns="http://www.w3.org/2000/svg"
 width="564.000000pt" height="1001.000000pt" viewBox="0 0 564.000000 1001.000000"
 preserveAspectRatio="xMidYMid meet">

<g transform="translate(0.000000,1001.000000) scale(0.100000,-0.100000)"
fill="#000000" stroke="none">
<path d="M0 5005 l0 -5005 2820 0 2820 0 0 5005 0 5005 -2820 0 -2820 0 0
-5005z m3970 4025 c-8 -5 -19 -10 -25 -10 -5 0 -3 5 5 10 8 5 20 10 25 10 6 0
3 -5 -5 -10z m-120 -111 c-36 -23 -85 -57 -108 -77 -24 -19 -58 -36 -75 -38
-31 -3 -31 -3 -12 12 11 9 43 27 70 41 28 14 68 37 90 52 62 40 79 50 90 50 6
1 -19 -18 -55 -40z m-51 27 c-2 -2 -15 -9 -29 -15 -24 -11 -24 -11 -6 3 16 13
49 24 35 12z m-73 -41 c-11 -8 -25 -15 -30 -15 -6 1 0 7 14 15 32 19 40 18 16
0z m-476 -370 c-7 -9 -27 -25 -44 -36 -25 -17 -24 -14 8 15 41 38 58 47 36 21z
m-50 -70 c0 -4 -8 -13 -116 -116 -114 -110 -121 -118 -104 -130 13 -9 12 -10
-2 -5 -16 5 -30 -8 -143 -139 -14 -16 -47 -61 -73 -99 -26 -39 -57 -80 -69
-93 -13 -12 -23 -27 -23 -33 0 -18 -40 -100 -48 -100 -5 0 -9 -31 -10 -70 -2
-59 0 -70 14 -70 11 0 15 -6 11 -19 -4 -18 19 -47 53 -63 8 -5 -1 -5 -20 -2
-41 7 -85 37 -101 66 -10 18 -6 82 8 127 3 12 1 11 -7 -2 -18 -28 -29 -127
-18 -164 13 -49 85 -67 233 -61 64 3 97 2 80 -3 -158 -42 -227 -59 -242 -59
-10 0 -40 20 -67 44 l-50 43 13 86 c16 106 51 177 179 367 92 137 226 289 259
295 10 1 17 8 15 15 -1 6 2 9 7 6 9 -6 25 11 26 25 0 8 61 59 70 59 5 0 17 9
29 21 23 22 89 79 94 79 1 0 2 -2 2 -5z m-26 -109 c-6 -15 -67 -66 -80 -66 -5
0 76 78 83 80 1 0 0 -7 -3 -14z m-106 -58 c-24 -24 -53 -49 -63 -57 -11 -8 5
11 37 43 31 31 59 56 63 56 3 0 -13 -19 -37 -42z m-28 -68 c-22 -30 -50 -55
-35 -29 12 18 48 59 52 59 3 0 -5 -13 -17 -30z m-50 -54 c0 -2 -8 -10 -17 -17
-16 -13 -17 -12 -4 4 13 16 21 21 21 13z m880 -26 c-35 -28 -189 -130 -197
-130 -3 0 -21 -12 -40 -26 -19 -14 -37 -24 -40 -21 -5 5 33 31 102 70 17 9 29
21 27 27 -1 7 2 9 8 5 5 -3 42 17 82 44 72 51 105 68 58 31z m-910 -14 c0 -2
-8 -10 -17 -17 -16 -13 -17 -12 -4 4 13 16 21 21 21 13z m-79 -93 c-12 -20
-14 -14 -5 12 4 9 9 14 11 11 3 -2 0 -13 -6 -23z m660 -127 c16 10 9 -12 -8
-28 -28 -24 -47 -33 -38 -18 6 9 1 10 -16 6 l-24 -7 25 20 c14 12 30 25 35 30
6 5 11 5 13 0 2 -5 8 -7 13 -3z m29 -30 c0 -2 -7 -7 -16 -10 -8 -3 -12 -2 -9
4 6 10 25 14 25 6z m-910 -181 c0 -30 -4 -55 -10 -55 -11 0 -13 33 -4 79 9 46
14 38 14 -24z m-195 -122 c0 -45 -3 -58 -15 -58 -21 0 -24 34 -5 78 8 20 17
37 18 37 2 0 3 -26 2 -57z m-56 12 c-12 -19 -26 -38 -33 -42 -8 -5 -8 -3 0 8
5 8 18 26 27 42 25 40 30 33 6 -8z m391 -31 c0 -2 -13 2 -30 11 -16 9 -30 18
-30 21 0 2 14 -2 30 -11 17 -9 30 -18 30 -21z m-505 -136 c-41 -62 -91 -147
-112 -188 -21 -41 -43 -78 -49 -82 -6 -4 -21 -31 -34 -60 -12 -29 -34 -78 -47
-108 -40 -86 -70 -178 -87 -265 -9 -44 -19 -91 -23 -105 l-6 -25 -7 25 c-7 23
-8 22 -10 -10 -2 -33 -3 -33 -11 13 -8 38 -6 62 11 120 34 118 76 218 111 269
13 17 15 28 8 30 -12 4 69 184 102 227 11 14 38 50 60 80 21 30 39 51 39 47 0
-4 -9 -21 -21 -38 -12 -16 -19 -31 -16 -34 2 -3 26 29 52 71 26 42 58 88 71
102 13 14 24 30 24 34 0 5 4 9 10 9 5 0 -24 -51 -65 -112z m-158 -20 c-19 -29
-39 -52 -45 -51 -5 1 -13 -4 -16 -13 -3 -8 -2 -12 4 -9 17 10 12 -3 -27 -73
-71 -129 -86 -163 -74 -175 15 -15 14 -30 -1 -21 -9 5 -9 2 1 -9 15 -19 1 -23
-17 -5 -12 12 -13 11 -16 -43 -1 -9 -8 -24 -16 -34 -9 -11 -10 -16 -2 -11 15
9 15 -5 0 -39 -9 -21 -9 -28 1 -34 10 -6 9 -10 -3 -14 -9 -4 -16 -2 -16 3 0 6
-5 10 -11 10 -5 0 -7 -4 -4 -10 3 -5 -3 -31 -14 -56 -15 -34 -17 -43 -6 -34
12 10 15 9 15 -4 0 -9 -7 -19 -16 -23 -11 -4 -14 -13 -10 -29 4 -13 2 -24 -3
-24 -5 0 -11 6 -13 14 -2 8 -10 -7 -19 -34 -13 -41 -13 -47 -1 -38 12 10 14 9
10 -7 -2 -11 -10 -19 -16 -18 -15 4 -16 -39 0 -55 12 -12 19 -74 7 -66 -4 2
-10 -5 -14 -16 -7 -23 -25 -27 -25 -5 0 8 4 15 9 15 5 0 7 9 4 20 -3 12 -8 19
-11 16 -4 -5 -18 -63 -26 -113 -2 -11 -7 -32 -11 -45 -5 -16 -4 -20 3 -13 6 6
12 21 14 35 2 14 9 34 15 45 11 19 12 18 9 -5 -6 -52 -27 -110 -40 -110 -14 0
-15 -4 -21 -75 -2 -27 -6 -60 -9 -72 -3 -13 -8 -67 -11 -120 -4 -54 -11 -116
-17 -138 -5 -22 -12 -51 -13 -65 -4 -30 -34 -111 -47 -124 -4 -6 -8 0 -9 15 0
18 -3 15 -12 -15 -13 -43 -32 -57 -41 -29 -2 10 -2 -9 1 -42 7 -70 22 -110 43
-110 10 0 23 33 43 105 52 189 125 421 152 485 7 17 19 50 26 75 7 25 16 49
21 55 9 10 -15 -75 -43 -150 -35 -96 -101 -311 -135 -445 -34 -131 -62 -187
-83 -165 -17 19 -41 109 -42 159 l-2 51 -8 -50 c-5 -27 -10 -68 -13 -90 -4
-37 -4 -38 3 -5 6 32 7 30 14 -30 17 -153 20 -233 8 -226 -21 13 -11 -13 14
-38 28 -28 36 -58 10 -36 -18 15 -19 7 -2 -23 40 -71 62 -45 95 113 15 71 13
19 -3 -90 -16 -104 -29 -139 -55 -141 -10 0 -11 -2 -2 -6 6 -2 12 -11 12 -18
0 -8 8 -19 18 -24 15 -10 15 -11 -5 -17 -27 -7 -29 -19 -8 -40 8 -9 15 -31 15
-50 0 -27 4 -35 25 -40 32 -8 42 -40 19 -65 -12 -14 -26 -18 -41 -14 -13 3
-23 2 -23 -3 0 -14 31 -52 39 -48 13 8 30 -9 22 -22 -6 -10 -15 -10 -34 -3
-25 10 -27 9 -27 -18 0 -25 3 -28 22 -23 18 4 20 2 15 -17 -5 -19 -3 -20 10
-9 17 14 16 3 -3 -75 -5 -21 -2 -31 12 -42 13 -10 14 -14 6 -15 -8 0 -25 9
-39 20 -28 22 -43 19 -24 -3 6 -8 9 -23 5 -33 -4 -14 -4 -16 4 -5 8 11 12 10
21 -7 14 -27 14 -35 -1 -26 -19 12 4 -19 32 -42 14 -12 36 -44 48 -70 13 -27
27 -57 33 -66 5 -10 9 -25 9 -33 0 -9 7 -26 15 -38 22 -34 44 -141 33 -160
-17 -31 -25 -17 -26 44 -1 48 -8 76 -33 125 -17 35 -35 64 -39 64 -4 0 -11 16
-14 36 -5 26 -10 33 -19 25 -9 -7 -25 0 -56 25 -24 18 -48 34 -52 34 -5 0 -5
7 -2 17 4 10 2 14 -5 9 -6 -3 -13 -2 -17 4 -3 5 -2 10 4 10 6 0 8 7 5 15 -4 8
-10 13 -14 10 -4 -3 -11 11 -14 30 -4 19 -11 37 -16 40 -10 6 -3 -44 16 -110
10 -35 11 -46 2 -37 -17 17 -28 15 -22 -5 5 -16 4 -16 -6 0 -7 10 -9 36 -6 60
3 23 3 34 0 24 -5 -15 -8 -16 -21 -5 -14 11 -15 10 -10 -7 3 -11 9 -33 12 -50
6 -28 5 -29 -8 -12 -11 14 -16 15 -20 5 -3 -7 -6 -3 -6 9 -1 12 -5 25 -11 28
-5 3 -10 12 -10 18 0 7 4 6 10 -3 18 -29 10 3 -9 34 -28 45 -39 217 -36 556 3
372 33 620 116 958 81 333 195 649 333 929 97 196 293 524 263 441 -10 -29 7
-20 25 12 9 17 20 30 23 30 3 0 -10 -24 -28 -52z m723 37 c0 -2 -30 -22 -68
-44 -82 -49 -145 -104 -346 -300 -256 -250 -455 -525 -546 -754 -12 -32 -25
-56 -27 -53 -6 5 26 93 54 151 11 22 31 63 45 92 14 29 29 49 33 45 5 -4 5 1
2 11 -4 9 -2 17 3 17 6 0 10 4 10 10 0 14 47 80 53 74 3 -3 4 3 3 13 0 9 4 18
11 18 6 0 15 4 20 9 5 5 3 6 -4 2 -7 -4 -13 -3 -13 2 0 15 26 33 35 24 5 -4 5
-1 1 5 -4 7 -2 21 3 30 10 17 10 16 11 -2 0 -16 2 -17 9 -6 5 8 7 21 4 30 -4
13 -3 13 5 2 8 -11 12 -10 21 6 5 11 7 24 3 28 -4 5 -2 5 4 2 13 -7 33 14 54
56 7 15 17 27 22 27 4 0 8 6 8 13 0 8 9 22 20 32 11 10 20 14 20 10 0 -5 11 2
25 15 14 13 25 29 25 35 0 19 176 191 255 251 57 43 232 154 243 154 1 0 2 -2
2 -5z m-747 -120 c-3 -9 -8 -14 -10 -11 -3 3 -2 9 2 15 9 16 15 13 8 -4z m-39
-72 c-15 -27 -36 -60 -46 -75 -10 -14 -18 -31 -18 -36 0 -6 -4 -14 -10 -17
-15 -9 3 32 44 99 20 33 36 63 36 68 0 4 5 8 10 8 6 0 -1 -21 -16 -47z m583
-110 c-18 -27 -48 -70 -66 -96 -18 -27 -35 -46 -38 -43 -6 5 125 186 134 186
3 0 -11 -21 -30 -47z m-546 -80 c-12 -20 -14 -14 -5 12 4 9 9 14 11 11 3 -2 0
-13 -6 -23z m223 -38 c-9 -14 -19 -23 -22 -20 -5 4 26 45 35 45 2 0 -4 -11
-13 -25z m-247 -17 c-3 -8 -6 -5 -6 6 -1 11 2 17 5 13 3 -3 4 -12 1 -19z m-16
-65 c-6 -21 -11 -71 -11 -112 0 -63 -4 -80 -27 -117 -16 -24 -32 -43 -37 -44
-12 0 2 124 14 128 6 2 10 16 10 30 0 27 50 165 57 158 3 -2 0 -21 -6 -43z
m454 -2 c-22 -44 -45 -73 -45 -57 0 8 61 106 66 106 2 0 -7 -22 -21 -49z m61
-48 c-3 -42 -17 -83 -26 -78 -5 3 -15 -14 -24 -37 -25 -72 -26 -74 -22 -43 7
56 37 149 53 167 21 23 22 23 19 -9z m-123 -58 c-9 -19 -18 -33 -21 -31 -4 5
26 66 33 66 3 0 -3 -16 -12 -35z m-546 -14 c-1 -19 -27 -18 -27 1 0 5 5 6 10
3 6 -3 10 -1 10 4 0 6 2 11 4 11 3 0 4 -9 3 -19z m880 -53 c-2 -13 -4 -5 -4
17 -1 22 1 32 4 23 2 -10 2 -28 0 -40z m-887 -3 c-7 -9 -15 -13 -17 -11 -7 7
7 26 19 26 6 0 6 -6 -2 -15z m-50 -123 c0 -5 -7 -17 -15 -28 -14 -18 -14 -17
-4 9 12 27 19 34 19 19z m479 -87 c-23 -77 -57 -128 -44 -66 8 39 54 145 60
139 2 -2 -5 -35 -16 -73z m-432 -7 c-3 -8 -6 -5 -6 6 -1 11 2 17 5 13 3 -3 4
-12 1 -19z m469 -134 c-29 -64 -30 -68 -15 -58 17 10 4 -37 -22 -81 -22 -36
-39 -43 -20 -7 5 10 8 28 5 39 -8 29 11 92 43 141 37 56 41 37 9 -34z m-16
-251 c0 -24 -10 -38 -37 -52 -28 -14 -30 -3 -8 39 17 33 45 40 45 13z m-94
-59 c-4 -9 -9 -15 -11 -12 -3 3 -3 13 1 22 4 9 9 15 11 12 3 -3 3 -13 -1 -22z
m-534 -109 c-2 -14 -6 -25 -8 -25 -2 0 -4 11 -4 25 0 14 4 25 9 25 4 0 6 -11
3 -25z m3 -301 c-9 -38 -27 -123 -40 -190 -22 -115 -64 -232 -73 -205 -4 11
-6 10 -13 0 -14 -22 -29 8 -28 56 l1 40 9 -33 c21 -70 59 -9 88 138 26 134 64
285 69 272 1 -5 -4 -41 -13 -78z m-108 -50 c-3 -3 -12 -4 -19 -1 -8 3 -5 6 6
6 11 1 17 -2 13 -5z m160 -31 c-3 -10 -5 -4 -5 12 0 17 2 24 5 18 2 -7 2 -21
0 -30z m1143 -76 c0 -2 -11 -14 -25 -27 -14 -13 -25 -21 -25 -17 0 3 10 15 22
27 21 19 28 24 28 17z m-1172 -142 c-1 -49 -18 -75 -18 -28 0 30 10 73 16 73
2 0 3 -20 2 -45z m-47 -164 c-6 -11 -11 -33 -11 -50 0 -17 -4 -31 -10 -31 -15
0 -9 58 17 150 7 23 8 21 11 -12 2 -20 -2 -46 -7 -57z m486 34 c-7 -41 -5 -42
40 -14 19 12 53 23 75 24 l40 4 -7 -37 c-3 -20 -13 -47 -21 -59 -20 -31 -17
-39 6 -18 11 10 20 24 20 30 0 16 26 38 40 33 10 -3 -31 -63 -107 -157 -16
-18 -32 -41 -37 -50 -5 -9 -26 -39 -48 -67 -21 -28 -52 -89 -69 -135 -32 -86
-32 -91 -14 -229 2 -19 -2 -10 -10 20 -17 64 -19 330 -5 480 7 80 12 98 32
115 13 11 31 37 40 58 22 47 32 47 25 2z m1193 31 c0 -2 -12 -11 -27 -20 l-28
-17 24 20 c23 21 31 25 31 17z m-110 -41 c-7 -9 -27 -25 -44 -37 -23 -15 -21
-11 9 16 43 38 55 45 35 21z m100 11 c0 -2 -8 -10 -17 -17 -16 -13 -17 -12 -4
4 13 16 21 21 21 13z m-54 -31 c-11 -8 -24 -15 -30 -15 -5 0 -1 7 10 15 10 8
24 14 29 14 6 0 1 -6 -9 -14z m-1691 -25 c-3 -5 -12 -10 -18 -10 -7 0 -6 4 3
10 19 12 23 12 15 0z m775 -49 c-11 -21 -30 -37 -30 -25 0 8 30 44 37 44 2 0
-1 -9 -7 -19z m45 -49 c-65 -62 -104 -92 -120 -92 -5 0 -3 5 5 10 8 5 12 10 7
10 -9 0 -47 -21 -69 -39 -28 -22 -21 0 8 29 14 14 36 41 48 60 14 22 30 35 43
35 11 0 31 9 44 20 13 11 1 -7 -26 -39 -58 -68 -36 -62 51 14 77 68 83 63 9
-8z m-768 -24 c-3 -7 -5 -2 -5 12 0 14 2 19 5 13 2 -7 2 -19 0 -25z m390 -75
c-2 -21 -4 -6 -4 32 0 39 2 55 4 38 2 -18 2 -50 0 -70z m850 60 c-15 -78 -21
-99 -31 -105 -7 -5 -7 -8 2 -8 9 0 11 -7 6 -22 -4 -13 -15 -57 -25 -98 -10
-45 -18 -63 -18 -45 0 17 6 55 14 85 18 68 18 84 -1 45 -13 -26 -14 -27 -10
-5 3 14 9 50 12 80 6 51 26 90 45 90 5 0 7 -8 6 -17z m-67 -63 c0 -5 -7 -7
-15 -4 -8 4 -15 8 -15 10 0 2 7 4 15 4 8 0 15 -4 15 -10z m-783 -212 c-2 -29
-3 -8 -3 47 0 55 1 79 3 53 2 -26 2 -71 0 -100z m451 105 c-8 -10 -24 -29 -34
-43 -10 -14 -49 -55 -87 -92 -80 -80 -74 -91 10 -15 l58 52 -62 -70 c-89 -102
-113 -152 -113 -239 -1 -53 -3 -67 -11 -54 -16 29 -4 159 20 209 l22 44 -30
-33 c-17 -18 -31 -42 -32 -55 0 -21 -1 -21 -10 3 -11 27 -3 130 10 130 5 0 14
-7 22 -16 12 -14 14 -14 25 1 7 10 20 15 28 12 19 -7 30 3 110 101 37 45 73
82 78 82 6 0 4 -8 -4 -17z m313 -295 c-11 -57 -22 -116 -24 -133 -3 -24 -4
-22 -6 11 0 23 8 83 19 135 11 52 20 105 21 119 2 24 2 24 6 -2 2 -15 -5 -74
-16 -130z m-233 69 c-35 -40 -73 -81 -85 -90 -21 -17 -23 -17 -43 3 -25 25
-25 42 0 65 16 14 23 15 34 6 8 -7 12 -20 10 -29 -3 -9 18 8 47 38 43 45 76
72 97 79 1 1 -26 -32 -60 -72z m-34 19 c-3 -9 -13 -16 -22 -16 -13 0 -12 3 3
20 20 23 29 21 19 -4z m-750 -12 c11 -27 7 -37 -9 -24 -16 14 -20 40 -6 40 5
0 12 -7 15 -16z m846 -38 c0 -2 -21 -24 -46 -50 -26 -25 -42 -46 -35 -46 22 0
11 -18 -24 -39 -55 -32 -44 -3 28 72 54 58 77 76 77 63z m-890 -57 c0 -5 -4
-9 -10 -9 -5 0 -10 7 -10 16 0 8 5 12 10 9 6 -3 10 -10 10 -16z m858 -70 c-7
-21 -7 -34 0 -41 13 -13 36 27 26 44 -4 6 -1 9 7 6 19 -6 39 -182 25 -220 -11
-31 -26 -37 -26 -12 0 9 -6 14 -12 12 -14 -5 -38 15 -38 31 0 6 6 10 12 9 7
-2 14 8 16 22 2 23 1 24 -11 8 -19 -24 -30 -23 -22 1 4 14 0 21 -15 26 -29 9
-22 41 9 37 21 -2 22 0 10 14 -17 20 -13 52 8 77 22 24 24 22 11 -14z m-908
-36 c0 -33 -2 -36 -15 -23 -8 9 -12 24 -9 38 10 35 24 26 24 -15z m31 -12
c-12 -12 -21 -16 -21 -9 0 14 34 48 38 37 2 -4 -6 -17 -17 -28z m489 -3 c0
-12 -14 -10 -28 4 -19 19 -14 29 8 16 11 -7 20 -16 20 -20z m-615 -74 c17 -13
15 -12 -12 1 -18 8 -33 20 -33 26 0 6 4 6 13 -1 6 -6 21 -17 32 -26z m1245 2
c0 -3 -4 -8 -10 -11 -5 -3 -10 -1 -10 4 0 6 5 11 10 11 6 0 10 -2 10 -4z
m-268 -111 c10 -13 10 -17 -1 -34 -6 -10 -13 -10 -29 -2 -17 9 -29 5 -71 -23
l-50 -34 -3 27 c-3 28 24 58 77 85 28 15 58 7 77 -19z m-238 9 c3 -8 2 -12 -4
-9 -6 3 -10 10 -10 16 0 14 7 11 14 -7z m-606 -59 c-3 -3 -9 2 -12 12 -6 14
-5 15 5 6 7 -7 10 -15 7 -18z m655 -47 c6 -22 5 -22 -8 -4 -17 22 -20 40 -6
32 5 -3 11 -16 14 -28z m468 -34 c10 -12 -14 -150 -27 -163 -3 -3 -2 10 2 29
5 19 9 69 8 110 0 41 1 66 4 55 2 -11 8 -25 13 -31z m-1374 -36 c-3 -7 -5 -2
-5 12 0 14 2 19 5 13 2 -7 2 -19 0 -25z m50 -162 c-4 -12 -47 115 -46 135 0 8
11 -17 25 -56 13 -38 23 -74 21 -79z m233 104 c0 -12 -8 -12 -35 0 -18 8 -17
9 8 9 15 1 27 -3 27 -9z m694 -76 c3 -8 2 -12 -4 -9 -6 3 -10 10 -10 16 0 14
7 11 14 -7z m353 -66 c-3 -8 -6 -5 -6 6 -1 11 2 17 5 13 3 -3 4 -12 1 -19z
m394 -41 c-10 -9 -11 -8 -5 6 3 10 9 15 12 12 3 -3 0 -11 -7 -18z m-27 -63
c-9 -21 -22 -52 -29 -69 -42 -92 -95 -224 -95 -234 0 -7 -18 -67 -40 -134 -21
-67 -48 -173 -60 -236 -22 -123 -27 -227 -10 -201 8 12 10 11 10 -7 0 -12 -5
-23 -12 -25 -7 -3 -8 -10 -4 -17 13 -21 25 1 31 58 4 44 2 52 -10 47 -10 -4
-15 1 -15 15 0 11 7 22 15 25 8 4 15 16 15 28 0 36 30 169 46 200 8 16 14 37
14 46 0 16 27 36 37 27 2 -2 -1 -16 -7 -31 -5 -15 -8 -31 -5 -36 3 -4 -4 -30
-16 -56 -18 -43 -19 -50 -5 -60 20 -14 21 -40 2 -47 -18 -7 -32 -59 -40 -148
-6 -66 -6 -66 20 -66 20 0 25 4 21 17 -3 12 4 22 19 29 13 6 24 7 24 2 0 -4 7
-8 15 -8 8 0 12 4 9 9 -3 4 -2 18 1 29 6 17 9 19 16 8 13 -22 38 9 48 62 8 43
9 42 9 -26 1 -69 -7 -134 -30 -249 l-11 -59 -28 33 -28 33 -10 -26 c-6 -15
-13 -27 -16 -27 -4 0 -4 4 -1 9 3 5 -1 14 -9 21 -8 7 -15 20 -15 29 0 14 -2
14 -10 1 -8 -12 -13 -13 -30 -2 -11 6 -21 12 -24 12 -8 0 -18 -124 -24 -310
-5 -123 -10 -187 -15 -172 -5 12 -6 129 -2 258 6 223 5 235 -12 232 -14 -3
-19 -17 -24 -68 -4 -36 -11 -76 -17 -90 -10 -24 -11 -23 -11 12 -1 20 -5 40
-11 43 -10 6 -18 -19 -23 -80 -2 -26 -4 -18 -5 25 -2 46 -5 61 -12 50 -5 -8
-10 -26 -10 -40 -1 -25 -1 -25 -17 5 -18 32 -19 31 -32 -36 -8 -38 -9 -40 -10
-12 -1 17 -8 39 -17 47 -18 18 -34 21 -34 6 0 -5 6 -10 14 -10 10 0 12 -16 8
-72 -5 -81 -16 -106 -27 -59 -4 17 -11 29 -16 25 -13 -8 -11 -89 6 -211 31
-222 36 -258 42 -278 3 -13 2 -16 -4 -10 -10 10 -17 46 -53 250 -12 66 -26
141 -31 168 -6 26 -8 74 -4 107 5 41 3 65 -4 74 -7 8 -13 33 -14 56 -1 32 4
46 20 58 11 9 26 34 33 54 12 38 46 79 94 111 15 11 25 22 22 25 -4 3 -12 0
-18 -6 -7 -7 -17 -12 -22 -12 -7 0 -8 3 -1 8 6 4 25 25 44 46 27 32 32 35 26
15 -5 -16 -4 -21 3 -14 6 6 18 33 26 60 15 44 16 46 12 13 -7 -60 -36 -108
-86 -144 -61 -44 -87 -95 -54 -108 14 -5 15 -4 4 9 -10 12 -10 15 5 15 12 0
15 5 11 17 -4 10 -4 14 0 11 3 -4 15 3 26 15 l19 22 -10 -22 c-21 -42 -11 -35
25 18 47 69 44 66 53 50 6 -9 20 8 45 55 34 64 45 107 73 274 3 19 14 51 23
70 10 19 34 94 54 165 24 86 56 168 94 242 57 112 76 140 46 67z m-566 -19 c0
-25 -4 -47 -9 -51 -5 -3 -9 -15 -9 -27 0 -15 -3 -18 -11 -10 -8 8 -6 28 6 72
10 33 19 61 20 61 1 0 2 -20 3 -45z m631 -62 c-42 -95 -48 -109 -60 -148 -12
-39 -13 -39 -20 -13 -4 14 -10 32 -14 39 -5 8 -4 10 3 5 7 -4 12 -1 12 6 0 10
2 10 9 -1 6 -10 11 -4 16 20 4 19 11 39 17 45 5 7 8 16 7 20 -3 21 2 34 23 54
12 11 23 20 25 20 1 0 -7 -21 -18 -47z m-586 -135 c-6 -73 -16 -146 -20 -163
-14 -45 -6 -60 43 -91 24 -15 44 -32 44 -36 0 -5 -12 0 -27 10 -16 11 -41 27
-56 36 -27 16 -28 21 -24 69 7 86 41 307 47 307 3 0 0 -60 -7 -132z m509 90
c-7 -7 -12 -8 -12 -2 0 6 3 14 7 17 3 4 9 5 12 2 2 -3 -1 -11 -7 -17z m-605
-45 c-3 -10 -5 -4 -5 12 0 17 2 24 5 18 2 -7 2 -21 0 -30z m570 -45 c-3 -8 -6
-5 -6 6 -1 11 2 17 5 13 3 -3 4 -12 1 -19z m20 -30 c-3 -8 -6 -5 -6 6 -1 11 2
17 5 13 3 -3 4 -12 1 -19z m-612 -88 c-13 -56 -23 -83 -24 -65 -1 31 12 90 31
138 19 50 17 24 -7 -73z m608 -2 c-5 -24 -3 -29 7 -23 14 9 7 -8 -15 -35 -14
-16 -40 -137 -52 -235 l-7 -60 -8 39 c-5 25 -4 52 3 73 6 19 9 36 7 39 -3 2 6
43 19 92 14 48 27 99 30 115 3 15 9 27 14 27 5 0 6 -14 2 -32z m-522 -166 c-7
-2 -18 1 -23 6 -8 8 -4 9 13 5 13 -4 18 -8 10 -11z m106 -59 c-3 -10 -5 -4 -5
12 0 17 2 24 5 18 2 -7 2 -21 0 -30z m-417 -58 c13 -14 22 -27 19 -29 -2 -1
-16 10 -31 25 -15 16 -24 29 -19 29 4 0 18 -11 31 -25z m-60 0 c0 -2 -10 -10
-22 -16 -21 -11 -22 -11 -9 4 13 16 31 23 31 12z m-299 -57 c13 -29 35 -63 48
-75 13 -13 21 -29 17 -38 -8 -22 -24 -18 -32 8 -4 12 -13 31 -21 42 -14 18
-15 12 -10 -60 5 -77 5 -79 -8 -40 -7 22 -14 68 -14 102 -1 34 -5 73 -11 87
-18 48 6 27 31 -26z m1939 32 c-6 -11 -13 -20 -16 -20 -2 0 0 9 6 20 6 11 13
20 16 20 2 0 0 -9 -6 -20z m-29 -53 c-10 -9 -11 -8 -5 6 3 10 9 15 12 12 3 -3
0 -11 -7 -18z m-974 -34 c-3 -10 -5 -4 -5 12 0 17 2 24 5 18 2 -7 2 -21 0 -30z
m390 -105 c-6 -88 -6 -91 8 -58 l15 35 -5 -40 c-4 -34 -1 -30 18 25 12 36 26
63 31 62 5 -2 13 2 17 10 14 21 11 -45 -5 -115 -25 -111 -47 -279 -60 -456 -8
-115 -17 -176 -24 -179 -16 -5 -15 -29 2 -35 9 -4 15 -39 20 -129 8 -142 40
-319 66 -364 17 -30 60 -142 60 -158 0 -4 -4 -4 -10 -1 -6 3 -7 -1 -4 -9 3 -9
9 -14 14 -11 4 2 18 -18 30 -46 13 -28 28 -53 34 -56 5 -3 7 -2 4 3 -15 25
-52 113 -59 139 -4 17 -15 50 -25 75 -10 25 -18 73 -18 108 -1 34 -4 62 -8 62
-5 0 -8 5 -8 11 0 5 5 7 11 3 7 -4 9 0 5 12 -28 95 -44 213 -45 344 -1 80 -6
162 -12 183 -12 44 -5 85 22 137 11 20 23 63 28 96 l9 59 2 -45 c6 -91 1 -177
-15 -255 -34 -176 -4 -449 71 -662 14 -40 30 -73 35 -73 4 0 11 -17 15 -37 4
-21 26 -80 51 -132 33 -72 40 -97 31 -103 -12 -7 -4 -12 15 -9 4 0 7 -6 7 -14
0 -8 4 -15 8 -15 4 0 16 -15 27 -32 10 -18 29 -44 42 -57 15 -15 20 -27 13
-31 -6 -4 0 -12 15 -20 14 -7 25 -20 25 -27 0 -8 5 -11 12 -7 7 4 8 3 4 -4 -4
-7 -1 -12 8 -12 8 0 19 -6 23 -13 4 -8 47 -43 94 -78 142 -106 147 -111 76
-66 -38 23 -82 50 -97 59 -27 16 -55 38 -116 94 -13 11 -35 29 -49 40 -63 46
-82 70 -52 65 5 -1 -4 14 -20 33 -15 19 -29 33 -32 31 -2 -3 3 -13 12 -23 24
-26 21 -39 -3 -17 -11 10 -20 22 -20 27 0 14 -101 138 -112 138 -6 0 -17 8
-25 18 -8 9 -12 12 -9 6 3 -7 -1 -14 -9 -18 -10 -3 -20 5 -30 24 -9 17 -20 30
-25 30 -14 0 -60 84 -85 154 -24 66 -61 237 -70 329 -4 36 -10 55 -17 51 -7
-5 -9 43 -4 157 10 269 9 480 -3 541 -10 50 -9 63 8 107 11 27 27 78 36 113
15 57 43 118 53 118 3 0 2 -42 -1 -92z m-681 -3 c4 -14 4 -29 0 -32 -3 -4 -6
3 -6 15 0 11 -8 26 -17 31 -17 10 -17 10 -1 11 11 0 20 -10 24 -25z m815 -12
c-12 -20 -14 -14 -5 12 4 9 9 14 11 11 3 -2 0 -13 -6 -23z m-1076 -83 c3 -6
-1 -7 -9 -4 -18 7 -21 14 -7 14 6 0 13 -4 16 -10z m15 -66 c14 -4 38 -7 54 -6
34 1 86 -32 86 -55 0 -10 -5 -13 -17 -8 -10 4 -55 20 -100 37 -46 16 -83 34
-83 40 0 5 8 7 18 4 9 -2 28 -8 42 -12z m73 9 c-7 -2 -19 -2 -25 0 -7 3 -2 5
12 5 14 0 19 -2 13 -5z m-423 -16 c0 4 5 0 11 -10 6 -10 8 -21 5 -24 -9 -10
-34 5 -46 27 -11 20 -10 21 9 10 12 -6 21 -7 21 -3z m1383 -2 c-3 -9 -8 -14
-10 -11 -3 3 -2 9 2 15 9 16 15 13 8 -4z m283 -42 c-8 -15 -15 -25 -16 -21 0
12 23 58 27 54 3 -2 -2 -17 -11 -33z m-1075 -34 c-5 -26 -9 -34 -10 -19 -1 27
9 73 15 67 2 -2 0 -23 -5 -48z m-512 -3 c-3 -3 -11 5 -18 17 -13 21 -12 21 5
5 10 -10 16 -20 13 -22z m1531 -97 c-27 -71 -58 -184 -96 -351 -10 -49 -15
-94 -11 -123 4 -25 2 -69 -5 -98 -9 -44 -12 -49 -19 -30 -12 32 -18 223 -8
223 5 0 9 13 9 30 0 16 5 53 11 82 9 41 14 48 19 33 6 -17 9 -13 19 21 34 125
98 300 107 291 2 -2 -10 -37 -26 -78z m-1420 47 c9 -12 8 -15 -8 -13 -12 0
-18 6 -15 14 6 16 8 16 23 -1z m-10 -60 c37 -44 102 -89 111 -75 3 6 9 7 12 2
3 -5 2 -15 -3 -22 -6 -11 -14 -10 -36 7 -34 24 -146 139 -124 126 8 -4 26 -21
40 -38z m45 -4 c-3 -3 -11 0 -18 7 -9 10 -8 11 6 5 10 -3 15 -9 12 -12z m349
-45 c-13 -31 -17 -69 -17 -147 1 -88 -1 -99 -9 -65 -5 22 -7 69 -4 105 5 66
37 183 44 161 2 -6 -4 -31 -14 -54z m303 -64 c-2 -16 -4 -5 -4 22 0 28 2 40 4
28 2 -13 2 -35 0 -50z m554 -215 c-9 -42 -8 -85 4 -198 17 -155 22 -178 63
-310 27 -88 170 -390 202 -425 9 -11 23 -38 30 -60 16 -49 35 -80 74 -122 16
-18 27 -35 24 -38 -11 -12 -125 118 -164 188 -75 131 -187 374 -209 452 -26
90 -65 353 -60 410 5 69 18 141 28 153 17 21 19 6 8 -50z m-104 -10 c-3 -7 -5
-2 -5 12 0 14 2 19 5 13 2 -7 2 -19 0 -25z m10 -290 c-3 -8 -6 -5 -6 6 -1 11
2 17 5 13 3 -3 4 -12 1 -19z m170 -50 c-3 -7 -5 -2 -5 12 0 14 2 19 5 13 2 -7
2 -19 0 -25z m10 -55 c-3 -10 -5 -4 -5 12 0 17 2 24 5 18 2 -7 2 -21 0 -30z
m-160 5 c-3 -8 -6 -5 -6 6 -1 11 2 17 5 13 3 -3 4 -12 1 -19z m-539 -118 l0
-25 -8 25 c-4 14 -8 36 -8 50 l0 25 8 -25 c4 -14 8 -36 8 -50z m1095 21 c-6
-3 -15 -40 -21 -81 l-11 -75 4 78 c3 72 23 129 33 97 3 -7 0 -15 -5 -19z
m-249 -149 c15 -30 26 -56 23 -58 -2 -2 -16 22 -32 53 -15 32 -34 62 -41 66
-8 4 -14 15 -14 24 0 22 30 -18 64 -85z m-757 4 c23 -25 39 -46 34 -46 -14 0
-89 86 -95 110 -7 24 -7 24 6 3 7 -11 32 -42 55 -67z m988 -572 c28 -26 37
-37 20 -25 -50 35 -91 71 -80 71 6 0 33 -21 60 -46z m-75 -49 c11 -13 10 -14
-4 -9 -9 3 -16 10 -16 15 0 13 6 11 20 -6z m164 -24 c-2 -3 -12 3 -22 13 -16
17 -16 18 5 5 12 -7 20 -15 17 -18z m-48 -39 c-5 -4 -66 26 -66 33 0 3 16 -3
35 -12 19 -9 33 -18 31 -21z m55 -23 l24 -20 -30 17 c-39 24 -40 24 -28 24 6
0 21 -9 34 -21z"/>
<path d="M3031 8330 c-13 -11 -19 -20 -14 -20 6 0 18 9 28 20 23 25 17 25 -14
0z"/>
<path d="M3505 7890 c-3 -5 -2 -10 4 -10 5 0 13 5 16 10 3 6 2 10 -4 10 -5 0
-13 -4 -16 -10z"/>
<path d="M2180 7298 c-12 -22 -12 -22 6 -6 10 10 15 20 12 24 -4 3 -12 -5 -18
-18z"/>
<path d="M2156 7253 c-6 -14 -5 -15 5 -6 7 7 10 15 7 18 -3 3 -9 -2 -12 -12z"/>
<path d="M2106 7163 c-6 -14 -5 -15 5 -6 7 7 10 15 7 18 -3 3 -9 -2 -12 -12z"/>
<path d="M2096 7383 c-6 -14 -5 -15 5 -6 7 7 10 15 7 18 -3 3 -9 -2 -12 -12z"/>
<path d="M1796 6562 c6 -4 14 -14 17 -22 4 -10 6 -8 6 8 1 15 -5 22 -16 22
-11 0 -14 -3 -7 -8z"/>
<path d="M1575 5790 c3 -5 8 -10 11 -10 2 0 4 5 4 10 0 6 -5 10 -11 10 -5 0
-7 -4 -4 -10z"/>
<path d="M1533 5493 c1 -29 5 -49 9 -45 4 4 4 28 -1 52 l-9 45 1 -52z"/>
<path d="M1541 5384 c0 -11 3 -14 6 -6 3 7 2 16 -1 19 -3 4 -6 -2 -5 -13z"/>
<path d="M1591 5094 c0 -11 3 -14 6 -6 3 7 2 16 -1 19 -3 4 -6 -2 -5 -13z"/>
<path d="M1580 4824 c1 -14 29 -48 35 -42 3 2 -4 15 -15 28 -11 13 -20 19 -20
14z"/>
<path d="M1476 4595 c8 -35 10 -38 22 -34 5 2 0 18 -10 34 l-19 30 7 -30z"/>
<path d="M1595 4560 c3 -5 8 -10 11 -10 2 0 4 5 4 10 0 6 -5 10 -11 10 -5 0
-7 -4 -4 -10z"/>
<path d="M2012 6760 c0 -14 2 -19 5 -12 2 6 2 18 0 25 -3 6 -5 1 -5 -13z"/>
<path d="M3051 3214 c0 -11 3 -14 6 -6 3 7 2 16 -1 19 -3 4 -6 -2 -5 -13z"/>
<path d="M3251 2438 c1 -189 12 -364 19 -303 2 17 4 38 3 48 0 9 4 17 9 17 4
0 8 29 8 65 0 61 12 86 24 48 2 -10 4 -7 3 7 -2 14 -8 24 -15 23 -13 -3 -16 9
-5 21 13 13 2 160 -13 184 -9 13 -14 35 -12 49 2 15 -3 28 -9 30 -10 4 -13
-38 -12 -189z"/>
<path d="M3470 1504 c0 -6 7 -19 16 -30 14 -18 14 -18 3 6 -14 31 -19 36 -19
24z"/>
<path d="M3626 1500 c21 -43 24 -47 24 -28 0 9 -9 26 -20 39 l-21 24 17 -35z"/>
</g>
</svg>
